<svg width="17" height="17" viewBox="0 0 17 17" fill="none" xmlns="http://www.w3.org/2000/svg">
<path d="M4.616 14C4.15534 14 3.771 13.846 3.463 13.538C3.155 13.23 3.00067 12.8457 3 12.385V1.615C3 1.155 3.15434 0.770669 3.463 0.462002C3.77167 0.153335 4.156 -0.000664511 4.616 2.15517e-06H15.385C15.845 2.15517e-06 16.2293 0.154002 16.538 0.462002C16.8467 0.770002 17.0007 1.15434 17 1.615V12.385C17 12.845 16.846 13.229 16.538 13.537C16.23 13.845 15.8453 13.9993 15.384 14H4.616ZM4.616 13H15.385C15.5383 13 15.6793 12.936 15.808 12.808C15.9367 12.68 16.0007 12.539 16 12.385V1.615C16 1.46167 15.936 1.32067 15.808 1.192C15.68 1.06334 15.5387 0.999335 15.384 1H4.616C4.462 1 4.32067 1.064 4.192 1.192C4.06334 1.32 3.99934 1.461 4 1.615V12.385C4 12.5383 4.064 12.6793 4.192 12.808C4.32 12.9367 4.461 13.0007 4.615 13M1.615 17C1.155 17 0.770669 16.846 0.462002 16.538C0.153335 16.23 -0.000664511 15.8457 2.15517e-06 15.385V4.115C2.15517e-06 3.973 0.0476687 3.85434 0.143002 3.759C0.238335 3.66367 0.357335 3.616 0.500002 3.616C0.642669 3.616 0.761669 3.66367 0.857002 3.759C0.952335 3.85434 1 3.97334 1 4.116V15.385C1 15.5383 1.064 15.6793 1.192 15.808C1.32 15.9367 1.461 16.0007 1.615 16H12.885C13.027 16 13.1457 16.0477 13.241 16.143C13.3363 16.2383 13.3843 16.3573 13.385 16.5C13.3857 16.6427 13.3377 16.7617 13.241 16.857C13.1443 16.9523 13.0257 17 12.885 17H1.615ZM7.04179 7.48217L9.51101 7.48217L9.51172 9.97897C9.51172 10.111 9.56192 10.2224 9.66233 10.3134C9.76274 10.4054 9.87941 10.4513 10.0123 10.4513C10.1453 10.4513 10.2591 10.4035 10.3539 10.3078C10.45 10.2116 10.4984 10.0973 10.4988 9.96482L10.4847 7.48146L12.9822 7.48147C13.1142 7.48147 13.228 7.43362 13.3237 7.33792C13.4194 7.24223 13.4677 7.12791 13.4687 6.99498C13.4696 6.86204 13.4213 6.74772 13.3237 6.65203C13.2261 6.55633 13.1121 6.50825 12.9815 6.50778L10.4847 6.50849L10.4847 4.01098C10.4847 3.87899 10.439 3.76727 10.3475 3.67582C10.2561 3.58436 10.1443 3.53864 10.0123 3.53864C9.88036 3.53864 9.76581 3.58672 9.6687 3.68289C9.573 3.77858 9.52492 3.89266 9.52445 4.02513L9.51242 6.50919H7.01492C6.88293 6.50919 6.77356 6.55728 6.68683 6.65344C6.59962 6.74914 6.55601 6.86345 6.55601 6.99639C6.55601 7.12838 6.60409 7.24246 6.70026 7.33863C6.79643 7.4348 6.91051 7.48288 7.0425 7.48288" fill="#ED145B"/>
</svg>
