<svg width="7" height="4" viewBox="0 0 7 4" fill="none" xmlns="http://www.w3.org/2000/svg">
<path d="M2.807 3.373L0.129999 0.696C0.0933325 0.659333 0.062333 0.616334 0.0369997 0.567C0.012333 0.518334 0 0.466 0 0.41C0 0.298 0.0366663 0.201667 0.11 0.121C0.184666 0.0403336 0.282666 0 0.403999 0H6.081C6.20167 0 6.299 0.0413329 6.373 0.124C6.447 0.206666 6.484 0.302666 6.484 0.412C6.484 0.44 6.44067 0.534667 6.354 0.696L3.677 3.373C3.615 3.435 3.54833 3.48267 3.477 3.516C3.40567 3.54933 3.32733 3.566 3.242 3.566C3.15667 3.566 3.07833 3.54933 3.007 3.516C2.93567 3.48267 2.869 3.435 2.807 3.373Z" fill="white"/>
</svg>
