<svg width="8" height="10" viewBox="0 0 8 10" fill="none" xmlns="http://www.w3.org/2000/svg">
<path d="M4.23699 0.0385947C4.30797 0.0643245 4.37764 0.108987 4.44602 0.172583L7.88211 3.36792C7.95518 3.43589 7.99432 3.51939 7.99954 3.61842C8.00476 3.71746 7.96561 3.80581 7.88211 3.88349C7.7986 3.96116 7.70622 4 7.60496 4C7.50371 4 7.41133 3.96116 7.32782 3.88349L4.00368 0.791553L0.679546 3.88349C0.606476 3.95145 0.516445 3.98786 0.40945 3.99272C0.3035 3.99757 0.20877 3.96116 0.125262 3.88349C0.0417537 3.80581 -1.43811e-07 3.71989 -1.35578e-07 3.6257C-1.27344e-07 3.53152 0.0417537 3.4456 0.125262 3.36792L3.56135 0.172583C3.6292 0.108987 3.69888 0.0643244 3.77038 0.0385947C3.84137 0.012865 3.91913 5.21404e-07 4.00368 5.28796e-07C4.08824 5.36188e-07 4.166 0.012865 4.23699 0.0385947Z" fill="#444"/>
<path d="M3.76302 9.96141C3.69203 9.93568 3.62236 9.89101 3.55399 9.82742L0.117894 6.63208C0.0448242 6.56411 0.00567977 6.48061 0.000460521 6.38158C-0.00475873 6.28254 0.0343857 6.19419 0.117894 6.11651C0.201402 6.03884 0.293782 6 0.395036 6C0.496289 6 0.58867 6.03884 0.672178 6.11651L3.99632 9.20845L7.32045 6.11651C7.39352 6.04855 7.48356 6.01214 7.59055 6.00728C7.6965 6.00243 7.79123 6.03884 7.87474 6.11651C7.95825 6.19419 8 6.28011 8 6.37429C8 6.46847 7.95825 6.5544 7.87474 6.63208L4.43865 9.82742C4.3708 9.89101 4.30112 9.93568 4.22962 9.96141C4.15863 9.98714 4.08087 10 3.99632 10C3.91176 10 3.834 9.98714 3.76302 9.96141Z" fill="#444"/>
</svg>
