<svg width="16" height="19" viewBox="0 0 16 19" fill="none" xmlns="http://www.w3.org/2000/svg">
<path d="M1.616 18.23C1.15533 18.23 0.771 18.076 0.463 17.768C0.155 17.46 0.000666667 17.0757 0 16.615V3.845C0 3.385 0.154333 3.001 0.463 2.693C0.771667 2.385 1.156 2.23067 1.616 2.23H3.385V0H4.462V2.23H11.616V0H12.616V2.23H14.385C14.845 2.23 15.2293 2.38433 15.538 2.693C15.8467 3.00167 16.0007 3.386 16 3.846V16.615C16 17.075 15.846 17.4593 15.538 17.768C15.23 18.0767 14.8453 18.2307 14.384 18.23H1.616ZM1.616 17.23H14.385C14.5383 17.23 14.6793 17.166 14.808 17.038C14.9367 16.91 15.0007 16.7687 15 16.614V7.846H1V16.615C1 16.7683 1.064 16.9093 1.192 17.038C1.32 17.1667 1.461 17.2307 1.615 17.23M1 6.845H15V3.845C15 3.69167 14.936 3.55067 14.808 3.422C14.68 3.29333 14.5387 3.22933 14.384 3.23H1.616C1.462 3.23 1.32067 3.294 1.192 3.422C1.06333 3.55 0.999333 3.69133 1 3.846V6.845Z" fill="#ED145B"/>
</svg>
