<svg width="19" height="17" viewBox="0 0 19 17" fill="none" xmlns="http://www.w3.org/2000/svg">
<path d="M1 15V1V12.235V10.205V15ZM1.616 16C1.15533 16 0.771 15.846 0.463 15.538C0.155 15.23 0.000666667 14.8453 0 14.384V1.616C0 1.15533 0.154333 0.771 0.463 0.463C0.771667 0.155 1.156 0.000666667 1.616 0H14.385C14.845 0 15.2293 0.154333 15.538 0.463C15.8467 0.771667 16.0007 1.156 16 1.616V9.577H15V1.616C15 1.462 14.936 1.32067 14.808 1.192C14.68 1.06333 14.5387 0.999333 14.384 1H1.616C1.462 1 1.32067 1.064 1.192 1.192C1.06333 1.32 0.999333 1.46133 1 1.616V14.385C1 14.5383 1.064 14.6793 1.192 14.808C1.32 14.9367 1.461 15.0007 1.615 15H7.962V16H1.616ZM13.254 17L10.512 14.277L11.225 13.569L13.254 15.598L17.311 11.541L18.019 12.254L13.254 17ZM4.664 8.549C4.81067 8.40233 4.884 8.21933 4.884 8C4.884 7.78067 4.81067 7.59767 4.664 7.451C4.51733 7.30433 4.33467 7.231 4.116 7.231C3.896 7.231 3.71267 7.30433 3.566 7.451C3.41933 7.59767 3.346 7.78067 3.346 8C3.346 8.21933 3.41933 8.40233 3.566 8.549C3.71267 8.69567 3.896 8.769 4.116 8.769C4.336 8.769 4.519 8.69567 4.665 8.549M4.665 4.779C4.81167 4.63233 4.885 4.44967 4.885 4.231C4.885 4.01233 4.81167 3.829 4.665 3.681C4.51833 3.533 4.335 3.45967 4.115 3.461C3.895 3.46233 3.712 3.53567 3.566 3.681C3.42 3.82633 3.34667 4.00967 3.346 4.231C3.34533 4.45233 3.41867 4.63533 3.566 4.78C3.71333 4.92467 3.89667 4.998 4.116 5C4.33467 5 4.51767 4.92567 4.665 4.779ZM7.192 8.5H12.577V7.5H7.192V8.5ZM7.192 4.73H12.577V3.73H7.192V4.73Z" fill="#ED145B"/>
</svg>
