<svg width="17" height="17" viewBox="0 0 17 17" fill="none" xmlns="http://www.w3.org/2000/svg">
<path d="M11.104 4.576C10.904 4.076 10.6083 3.68467 10.217 3.402C9.82567 3.11933 9.35467 2.97733 8.804 2.976C8.504 2.976 8.18667 3.03033 7.852 3.139C7.51733 3.24833 7.23333 3.439 7 3.711L6.281 2.991C6.52767 2.71967 6.83467 2.501 7.202 2.335C7.57 2.16833 7.92067 2.06667 8.254 2.03V0.392H9.254V2.019C9.79867 2.079 10.3287 2.28067 10.844 2.624C11.36 2.96667 11.7597 3.48567 12.043 4.181L11.104 4.576ZM16.093 16.8L11.916 12.623C11.64 13.0143 11.2533 13.3437 10.756 13.611C10.2587 13.8777 9.758 14.015 9.254 14.023V15.662H8.254V13.973C7.42333 13.8163 6.75967 13.4747 6.263 12.948C5.76633 12.4213 5.37633 11.7297 5.093 10.873L6.054 10.496C6.26733 11.196 6.608 11.796 7.076 12.296C7.54467 12.796 8.17067 13.046 8.954 13.046C9.434 13.046 9.866 12.9413 10.25 12.732C10.6347 12.522 10.95 12.246 11.196 11.904L0 0.708L0.708 0L16.8 16.092L16.093 16.8Z" fill="#ED145B"/>
</svg>
