<svg width="9" height="17" viewBox="0 0 9 17" fill="none" xmlns="http://www.w3.org/2000/svg">
<path d="M3.94606 17C3.80339 17 3.68439 16.9523 3.58905 16.857C3.49372 16.7617 3.44572 16.6427 3.44505 16.5V14.965C2.65705 14.8623 1.97639 14.609 1.40305 14.205C0.829722 13.8017 0.374722 13.2443 0.0380551 12.533C-0.0146116 12.415 -0.012612 12.2877 0.0440546 12.151C0.100721 12.0143 0.194054 11.9197 0.324054 11.867C0.442054 11.8183 0.568721 11.8193 0.704054 11.87C0.839388 11.9207 0.934721 12.007 0.990055 12.129C1.28605 12.7317 1.67306 13.194 2.15106 13.516C2.62972 13.8387 3.25639 14 4.03105 14C4.79105 14 5.48539 13.8107 6.11405 13.432C6.74272 13.0533 7.05705 12.4427 7.05705 11.6C7.05705 10.8887 6.82572 10.3173 6.36305 9.88601C5.89972 9.45467 5.03372 9.03501 3.76505 8.62701C2.47239 8.21567 1.56272 7.74567 1.03605 7.21701C0.509388 6.68767 0.246054 5.99867 0.246054 5.15001C0.246054 4.22067 0.602388 3.47834 1.31505 2.92301C2.02772 2.36834 2.73772 2.06834 3.44505 2.02301V0.500007C3.44505 0.358007 3.49305 0.239007 3.58905 0.143007C3.68505 0.0470068 3.80372 -0.00065977 3.94505 6.89657e-06C4.08639 0.000673563 4.20539 0.0483401 4.30205 0.143007C4.39872 0.237673 4.44639 0.356674 4.44505 0.500007V2.02301C5.04039 2.08501 5.56805 2.23801 6.02805 2.48201C6.48805 2.72601 6.88105 3.07301 7.20705 3.52301C7.28039 3.63701 7.30005 3.75701 7.26605 3.88301C7.23205 4.00901 7.15039 4.10434 7.02105 4.16901C6.90305 4.23101 6.77972 4.24501 6.65105 4.21101C6.52239 4.17701 6.40772 4.10101 6.30705 3.98301C6.05172 3.67234 5.73972 3.42234 5.37105 3.23301C5.00239 3.04434 4.54372 2.95001 3.99505 2.95001C3.22372 2.95001 2.57272 3.15434 2.04205 3.56301C1.51139 3.97101 1.24605 4.50001 1.24605 5.15001C1.24605 5.76401 1.46372 6.26134 1.89905 6.64201C2.33505 7.02334 3.20839 7.42101 4.51905 7.83501C5.73239 8.21901 6.62572 8.71267 7.19905 9.31601C7.77105 9.91934 8.05705 10.6767 8.05705 11.588C8.05705 12.592 7.70372 13.3897 6.99705 13.981C6.29039 14.5723 5.43972 14.9043 4.44505 14.977V16.5C4.44505 16.6427 4.39739 16.7617 4.30205 16.857C4.20672 16.9523 4.08772 17 3.94505 17" fill="white"/>
</svg>
