<svg width="18" height="18" viewBox="0 0 18 18" fill="none" xmlns="http://www.w3.org/2000/svg">
<path d="M5.885 4.385H13.115C13.257 4.385 13.376 4.433 13.472 4.529C13.568 4.625 13.6157 4.74367 13.615 4.885C13.6143 5.02633 13.5667 5.145 13.472 5.241C13.3773 5.337 13.2583 5.385 13.115 5.385H5.885C5.743 5.385 5.624 5.337 5.528 5.241C5.43267 5.145 5.385 5.026 5.385 4.884C5.385 4.742 5.43267 4.62333 5.528 4.528C5.62333 4.43267 5.74233 4.385 5.885 4.385ZM5.885 7.154H13.115C13.257 7.154 13.376 7.202 13.472 7.298C13.568 7.394 13.6157 7.513 13.615 7.655C13.6143 7.797 13.5667 7.91567 13.472 8.011C13.3773 8.10633 13.2583 8.154 13.115 8.154H5.885C5.743 8.154 5.624 8.106 5.528 8.01C5.43267 7.914 5.385 7.795 5.385 7.653C5.385 7.511 5.43267 7.39233 5.528 7.297C5.62333 7.20167 5.74233 7.154 5.885 7.154ZM2 18C1.436 18 0.961667 17.8077 0.577 17.423C0.192333 17.0383 0 16.564 0 16V14.039C0 13.8097 0.0773332 13.6177 0.232 13.463C0.386667 13.3083 0.578667 13.231 0.808 13.231H3V1.616C3 1.17133 3.15833 0.791 3.475 0.475C3.79167 0.159 4.17167 0.000666667 4.615 0H14.385C14.829 0 15.209 0.158333 15.525 0.475C15.841 0.791667 15.9993 1.17167 16 1.615V7.423C16 7.565 15.952 7.68367 15.856 7.779C15.76 7.87433 15.641 7.92233 15.499 7.923C15.357 7.92367 15.2383 7.87567 15.143 7.779C15.0477 7.68233 15 7.56367 15 7.423V1.616C15 1.436 14.9423 1.28833 14.827 1.173C14.7117 1.05767 14.5643 1 14.385 1H4.615C4.43567 1 4.28833 1.05767 4.173 1.173C4.05767 1.28833 4 1.436 4 1.616V13.23H7.346C7.488 13.23 7.60667 13.278 7.702 13.374C7.79733 13.47 7.84533 13.5887 7.846 13.73C7.84667 13.8713 7.79867 13.99 7.702 14.086C7.60533 14.182 7.48667 14.23 7.346 14.23H1V16C1 16.2833 1.096 16.521 1.288 16.713C1.48 16.905 1.71733 17.0007 2 17H7.346C7.488 17 7.607 17.048 7.703 17.144C7.799 17.24 7.84667 17.359 7.846 17.501C7.84533 17.643 7.79767 17.7617 7.703 17.857C7.60833 17.9523 7.48933 18 7.346 18H2ZM10.23 17.192V16.12C10.23 16.018 10.249 15.9193 10.287 15.824C10.3237 15.728 10.3857 15.6363 10.473 15.549L15.563 10.484C15.6623 10.3853 15.7643 10.3187 15.869 10.284C15.9743 10.2493 16.0793 10.232 16.184 10.232C16.2987 10.232 16.4113 10.2533 16.522 10.296C16.6327 10.3393 16.733 10.404 16.823 10.49L17.748 11.434C17.83 11.5327 17.8927 11.6353 17.936 11.742C17.9787 11.848 18 11.9543 18 12.061C18 12.1677 17.9797 12.275 17.939 12.383C17.8983 12.491 17.8347 12.5943 17.748 12.693L12.683 17.759C12.5957 17.8457 12.504 17.9077 12.408 17.945C12.3127 17.9823 12.2137 18.001 12.111 18.001H11.038C10.8093 18.001 10.6177 17.9237 10.463 17.769C10.3083 17.6143 10.231 17.4223 10.231 17.193M11.115 17.116H12.065L15.533 13.643L15.063 13.168L14.608 12.68L11.115 16.166V17.116ZM15.063 13.168L14.608 12.68L15.533 13.643L15.063 13.168Z" fill="#ED145B"/>
</svg>
