<svg width="128" height="44" viewBox="0 0 128 44" fill="none" xmlns="http://www.w3.org/2000/svg">
<path d="M3.20561 35V8.81818H18.9045V11.6307H6.37607V20.4773H17.7283V23.2898H6.37607V35H3.20561ZM23.9254 35V15.3636H26.9425V35H23.9254ZM25.4595 12.0909C24.8714 12.0909 24.3643 11.8906 23.9382 11.4901C23.5206 11.0895 23.3118 10.608 23.3118 10.0455C23.3118 9.48295 23.5206 9.00142 23.9382 8.60085C24.3643 8.20028 24.8714 8 25.4595 8C26.0476 8 26.5504 8.20028 26.968 8.60085C27.3942 9.00142 27.6072 9.48295 27.6072 10.0455C27.6072 10.608 27.3942 11.0895 26.968 11.4901C26.5504 11.8906 26.0476 12.0909 25.4595 12.0909ZM35.4854 23.1875V35H32.4684V15.3636H35.3832V18.4318H35.6388C36.0991 17.4347 36.7979 16.6335 37.7354 16.0284C38.6729 15.4148 39.8832 15.108 41.3661 15.108C42.6957 15.108 43.859 15.3807 44.8562 15.9261C45.8533 16.4631 46.6289 17.2812 47.1829 18.3807C47.7369 19.4716 48.0139 20.8523 48.0139 22.5227V35H44.9968V22.7273C44.9968 21.1847 44.5962 19.983 43.7951 19.1222C42.994 18.2528 41.8945 17.8182 40.4968 17.8182C39.5337 17.8182 38.6729 18.027 37.9144 18.4446C37.1644 18.8622 36.5721 19.4716 36.1374 20.2727C35.7028 21.0739 35.4854 22.0455 35.4854 23.1875ZM62.0668 15.3636V17.9205H51.8906V15.3636H62.0668ZM54.8565 10.6591H57.8736V29.375C57.8736 30.2273 57.9972 30.8665 58.2443 31.2926C58.5 31.7102 58.8239 31.9915 59.2159 32.1364C59.6165 32.2727 60.0384 32.3409 60.4815 32.3409C60.8139 32.3409 61.0866 32.3239 61.2997 32.2898C61.5128 32.2472 61.6832 32.2131 61.8111 32.1875L62.4247 34.8977C62.2202 34.9744 61.9347 35.0511 61.5682 35.1278C61.2017 35.2131 60.7372 35.2557 60.1747 35.2557C59.3224 35.2557 58.4872 35.0724 57.669 34.706C56.8594 34.3395 56.1861 33.7812 55.6491 33.0312C55.1207 32.2812 54.8565 31.3352 54.8565 30.1932V10.6591ZM74.6271 35.4091C72.7351 35.4091 71.103 34.9915 69.7308 34.1562C68.3672 33.3125 67.3146 32.1364 66.5732 30.6278C65.8402 29.1108 65.4737 27.3466 65.4737 25.3352C65.4737 23.3239 65.8402 21.5511 66.5732 20.017C67.3146 18.4744 68.3459 17.2727 69.6669 16.4119C70.9964 15.5426 72.5476 15.108 74.3203 15.108C75.343 15.108 76.353 15.2784 77.3501 15.6193C78.3473 15.9602 79.255 16.5142 80.0732 17.2812C80.8913 18.0398 81.5433 19.0455 82.0291 20.2983C82.5149 21.5511 82.7578 23.0937 82.7578 24.9261V26.2045H67.6214V23.5966H79.6896C79.6896 22.4886 79.468 21.5 79.0249 20.6307C78.5902 19.7614 77.968 19.0753 77.1584 18.5724C76.3572 18.0696 75.4112 17.8182 74.3203 17.8182C73.1186 17.8182 72.0788 18.1165 71.201 18.7131C70.3317 19.3011 69.6626 20.0682 69.1939 21.0142C68.7251 21.9602 68.4908 22.9744 68.4908 24.0568V25.7955C68.4908 27.2784 68.7464 28.5355 69.2578 29.5668C69.7777 30.5895 70.4979 31.3693 71.4183 31.9062C72.3388 32.4347 73.4084 32.6989 74.6271 32.6989C75.4197 32.6989 76.1357 32.5881 76.7749 32.3665C77.4226 32.1364 77.9808 31.7955 78.4496 31.3438C78.9183 30.8835 79.2805 30.3125 79.5362 29.6307L82.451 30.4489C82.1442 31.4375 81.6286 32.3068 80.9041 33.0568C80.1797 33.7983 79.2848 34.3778 78.2195 34.7955C77.1541 35.2045 75.9567 35.4091 74.6271 35.4091ZM95.3246 35.4091C93.4837 35.4091 91.8984 34.9744 90.5689 34.1051C89.2393 33.2358 88.2166 32.0384 87.5007 30.5128C86.7848 28.9872 86.4268 27.2443 86.4268 25.2841C86.4268 23.2898 86.7933 21.5298 87.5263 20.0043C88.2678 18.4702 89.299 17.2727 90.62 16.4119C91.9496 15.5426 93.5007 15.108 95.2734 15.108C96.6541 15.108 97.8984 15.3636 99.0064 15.875C100.114 16.3864 101.022 17.1023 101.729 18.0227C102.437 18.9432 102.876 20.017 103.046 21.2443H100.029C99.799 20.3494 99.2876 19.5568 98.495 18.8665C97.7109 18.1676 96.6541 17.8182 95.3246 17.8182C94.1484 17.8182 93.1172 18.125 92.2308 18.7386C91.353 19.3437 90.6669 20.2003 90.1726 21.3082C89.6868 22.4077 89.4439 23.6989 89.4439 25.1818C89.4439 26.6989 89.6825 28.0199 90.1598 29.1449C90.6456 30.2699 91.3274 31.1435 92.2053 31.7656C93.0916 32.3878 94.1314 32.6989 95.3246 32.6989C96.1087 32.6989 96.8203 32.5625 97.4595 32.2898C98.0987 32.017 98.6399 31.625 99.0831 31.1136C99.5263 30.6023 99.8416 29.9886 100.029 29.2727H103.046C102.876 30.4318 102.454 31.4759 101.781 32.4048C101.116 33.3253 100.234 34.0582 99.1342 34.6037C98.0433 35.1406 96.7734 35.4091 95.3246 35.4091ZM110.474 23.1875V35H107.457V8.81818H110.474V18.4318H110.729C111.19 17.4176 111.88 16.6122 112.8 16.0156C113.729 15.4105 114.965 15.108 116.508 15.108C117.846 15.108 119.018 15.3764 120.023 15.9134C121.029 16.4418 121.809 17.2557 122.363 18.3551C122.925 19.446 123.207 20.8352 123.207 22.5227V35H120.19V22.7273C120.19 21.1676 119.785 19.9616 118.975 19.1094C118.174 18.2486 117.062 17.8182 115.638 17.8182C114.65 17.8182 113.763 18.027 112.979 18.4446C112.204 18.8622 111.59 19.4716 111.138 20.2727C110.695 21.0739 110.474 22.0455 110.474 23.1875Z" fill="white"/>
<rect x="53" y="40.5" width="70" height="3" fill="#ED145B"/>
</svg>
