<svg width="16" height="16" viewBox="0 0 16 16" fill="none" xmlns="http://www.w3.org/2000/svg">
<path d="M1.616 16C1.15533 16 0.771 15.846 0.463 15.538C0.155 15.23 0.000666667 14.8453 0 14.384V11H1V14.385C1 14.5383 1.064 14.6793 1.192 14.808C1.32 14.9367 1.461 15.0007 1.615 15H5V16H1.616ZM14.385 16H11V15H14.385C14.5383 15 14.6793 14.936 14.808 14.808C14.9367 14.68 15.0007 14.5387 15 14.384V11H16V14.385C16 14.845 15.846 15.229 15.538 15.537C15.23 15.845 14.8463 15.9993 14.385 16ZM0 1.616C0 1.15533 0.154333 0.771 0.463 0.463C0.771667 0.155 1.156 0.000666667 1.616 0H5V1H1.616C1.462 1 1.32067 1.064 1.192 1.192C1.06333 1.32 0.999333 1.46133 1 1.616V5H0V1.616ZM16 1.616V5H15V1.616C15 1.462 14.936 1.32067 14.808 1.192C14.68 1.06333 14.5387 0.999333 14.384 1H11V0H14.385C14.845 0 15.229 0.154333 15.537 0.463C15.845 0.771667 15.9993 1.156 16 1.616ZM8.599 12.984C8.751 12.832 8.827 12.645 8.827 12.423C8.827 12.2017 8.751 12.015 8.599 11.863C8.447 11.711 8.26033 11.635 8.039 11.635C7.81767 11.635 7.63067 11.711 7.478 11.863C7.32533 12.015 7.24933 12.2017 7.25 12.423C7.25067 12.6443 7.32667 12.831 7.478 12.983C7.63 13.1357 7.81667 13.212 8.038 13.212C8.25933 13.212 8.44633 13.136 8.599 12.984ZM7.523 9.906H8.483C8.50833 9.48 8.591 9.13 8.731 8.856C8.871 8.582 9.14 8.24533 9.538 7.846C10.0447 7.33933 10.3937 6.91333 10.585 6.568C10.7763 6.22267 10.8723 5.83867 10.873 5.416C10.873 4.644 10.612 4.013 10.09 3.523C9.56867 3.03367 8.89767 2.789 8.077 2.789C7.42367 2.789 6.84467 2.95433 6.34 3.285C5.836 3.61567 5.44433 4.09133 5.165 4.712L6.085 5.098C6.265 4.678 6.52733 4.343 6.872 4.093C7.216 3.84367 7.60467 3.719 8.038 3.719C8.58533 3.719 9.034 3.877 9.384 4.193C9.73333 4.509 9.908 4.92233 9.908 5.433C9.908 5.74033 9.832 6.03033 9.68 6.303C9.528 6.57567 9.26667 6.87667 8.896 7.206C8.39733 7.67667 8.044 8.11133 7.836 8.51C7.628 8.90867 7.52367 9.374 7.523 9.906Z" fill="#ED145B"/>
</svg>
