<svg width="25" height="30" viewBox="0 0 25 30" fill="none" xmlns="http://www.w3.org/2000/svg">
<g opacity="0.5">
<path d="M10.8283 26.191C10.4883 25.883 10.286 25.499 10.2213 25.039H13.8373C13.7733 25.499 13.571 25.883 13.2303 26.191C12.8896 26.499 12.4893 26.6533 12.0293 26.654C11.5693 26.6547 11.169 26.5003 10.8283 26.191ZM9.0293 23.27C8.8873 23.27 8.7683 23.2223 8.6723 23.127C8.5763 23.0317 8.52863 22.9127 8.5293 22.77C8.52996 22.6273 8.57763 22.5087 8.6723 22.414C8.76696 22.3193 8.88596 22.2713 9.0293 22.27H15.0293C15.172 22.27 15.291 22.318 15.3863 22.414C15.4816 22.51 15.5293 22.6287 15.5293 22.77C15.5293 22.9113 15.4816 23.0303 15.3863 23.127C15.291 23.2237 15.172 23.2713 15.0293 23.27H9.0293ZM8.5873 20.5C7.64263 19.8807 6.89663 19.0953 6.3493 18.144C5.80196 17.1927 5.52863 16.1447 5.5293 15C5.5293 13.186 6.1593 11.6493 7.4193 10.39C8.6793 9.13067 10.216 8.50067 12.0293 8.5C13.8426 8.49933 15.3793 9.12933 16.6393 10.39C17.8993 11.6507 18.5293 13.1873 18.5293 15C18.5293 16.1447 18.256 17.1927 17.7093 18.144C17.1626 19.0953 16.4166 19.8807 15.4713 20.5H8.5873ZM8.8793 19.5H15.1793C15.9293 18.9667 16.5086 18.3083 16.9173 17.525C17.326 16.7417 17.53 15.9 17.5293 15C17.5293 13.4667 16.996 12.1667 15.9293 11.1C14.8626 10.0333 13.5626 9.5 12.0293 9.5C10.496 9.5 9.19597 10.0333 8.1293 11.1C7.06263 12.1667 6.5293 13.4667 6.5293 15C6.5293 15.9 6.73363 16.7417 7.1423 17.525C7.55096 18.3083 8.12997 18.9667 8.8793 19.5Z" fill="white"/>
<rect x="12.0293" width="1" height="6" fill="#D9D9D9"/>
<rect x="22.125" y="5.86777" width="1" height="5.00077" transform="rotate(45 22.125 5.86777)" fill="#D9D9D9"/>
<rect x="24.1553" y="18.0362" width="1" height="4.00365" transform="rotate(105 24.1553 18.0362)" fill="#D9D9D9"/>
<rect x="0.258789" y="19.0002" width="1" height="3.99607" transform="rotate(-105 0.258789 19.0002)" fill="#D9D9D9"/>
<rect x="1.0293" y="6.70711" width="1" height="4.99552" transform="rotate(-45 1.0293 6.70711)" fill="#D9D9D9"/>
</g>
</svg>
