<svg width="6" height="11" viewBox="0 0 6 11" fill="none" xmlns="http://www.w3.org/2000/svg">
<path d="M5.44 5.41204C5.40467 5.50271 5.34333 5.59171 5.256 5.67904L0.868 10.068C0.774667 10.1614 0.66 10.2114 0.524 10.218C0.388 10.2247 0.266667 10.1747 0.16 10.068C0.0533332 9.96137 -1.64029e-08 9.84337 -2.20563e-08 9.71404C-2.77096e-08 9.58471 0.0533331 9.46671 0.16 9.36004L4.406 5.11404L0.159999 0.868039C0.0666661 0.774706 0.0166665 0.659706 0.00999981 0.52304C0.00333313 0.387707 0.0533327 0.266706 0.159999 0.160039C0.266666 0.0533724 0.384666 3.90838e-05 0.513999 3.90782e-05C0.643333 3.90725e-05 0.761333 0.0533723 0.868 0.160039L5.256 4.54904C5.34333 4.63571 5.40467 4.72471 5.44 4.81604C5.47533 4.90671 5.493 5.00604 5.493 5.11404C5.493 5.22204 5.47533 5.32137 5.44 5.41204Z" fill="white"/>
</svg>
