<svg width="6" height="11" viewBox="0 0 6 11" fill="none" xmlns="http://www.w3.org/2000/svg">
<path d="M0.0531633 4.80659C0.0884965 4.71592 0.14983 4.62692 0.237163 4.53959L4.62516 0.150588C4.7185 0.057255 4.83316 0.00725487 4.96916 0.000588211C5.10516 -0.00607845 5.2265 0.0439217 5.33316 0.150588C5.43983 0.257255 5.49316 0.375255 5.49316 0.504588C5.49316 0.633922 5.43983 0.751922 5.33316 0.858589L1.08716 5.10459L5.33316 9.35059C5.4265 9.44392 5.4765 9.55892 5.48316 9.69559C5.48983 9.83092 5.43983 9.95192 5.33316 10.0586C5.2265 10.1653 5.1085 10.2186 4.97916 10.2186C4.84983 10.2186 4.73183 10.1653 4.62516 10.0586L0.237163 5.66959C0.14983 5.58292 0.0884964 5.49392 0.0531633 5.40259C0.0178301 5.31192 0.000163804 5.21259 0.000163809 5.10459C0.000163814 4.99659 0.0178302 4.89725 0.0531633 4.80659Z" fill="white"/>
</svg>
