<svg width="18" height="18" viewBox="0 0 18 18" fill="none" xmlns="http://www.w3.org/2000/svg">
<path d="M5.493 17.292C4.39767 16.8193 3.44467 16.178 2.634 15.368C1.82333 14.558 1.18167 13.606 0.709 12.512C0.236333 11.418 0 10.2483 0 9.003C0 7.75767 0.236333 6.58767 0.709 5.493C1.181 4.39767 1.82133 3.44467 2.63 2.634C3.43867 1.82333 4.391 1.18167 5.487 0.709C6.583 0.236333 7.753 0 8.997 0C10.241 0 11.411 0.236333 12.507 0.709C13.6023 1.181 14.5553 1.82167 15.366 2.631C16.1767 3.44033 16.8183 4.39267 17.291 5.488C17.7637 6.58333 18 7.753 18 8.997C18 10.241 17.764 11.411 17.292 12.507C16.82 13.603 16.1787 14.556 15.368 15.366C14.5573 16.176 13.6053 16.8177 12.512 17.291C11.4187 17.7643 10.249 18.0007 9.003 18C7.757 17.9993 6.587 17.7633 5.493 17.292ZM14.675 14.675C16.225 13.125 17 11.2333 17 9C17 6.76667 16.225 4.875 14.675 3.325C13.125 1.775 11.2333 1 9 1C6.76667 1 4.875 1.775 3.325 3.325C1.775 4.875 1 6.76667 1 9C1 11.2333 1.775 13.125 3.325 14.675C4.875 16.225 6.76667 17 9 17C11.2333 17 13.125 16.225 14.675 14.675ZM5.461 12.543C4.487 11.5717 4 10.3923 4 9.005C4 7.61767 4.48567 6.436 5.457 5.46C6.42833 4.484 7.60767 3.99733 8.995 4C10.3823 4.00267 11.5637 4.48833 12.539 5.457C13.5143 6.42567 14.0013 7.605 14 8.995C13.9987 10.385 13.513 11.5663 12.543 12.539C11.573 13.5117 10.3937 13.9987 9.005 14C7.61633 14.0013 6.43467 13.5157 5.46 12.543M11.824 11.825C12.608 11.0417 13 10.1 13 9C13 7.9 12.6083 6.95833 11.825 6.175C11.0417 5.39167 10.1 5 9 5C7.9 5 6.95833 5.39167 6.175 6.175C5.39167 6.95833 5 7.9 5 9C5 10.1 5.39167 11.0417 6.175 11.825C6.95833 12.6083 7.9 13 9 13C10.1 13 11.0407 12.6083 11.824 11.825ZM8.299 9.701C8.09967 9.50167 8 9.268 8 9C8 8.732 8.09967 8.49833 8.299 8.299C8.49833 8.09967 8.732 8 9 8C9.268 8 9.50167 8.09967 9.701 8.299C9.90033 8.49833 10 8.732 10 9C10 9.268 9.90033 9.50167 9.701 9.701C9.50167 9.90033 9.268 10 9 10C8.732 10 8.49833 9.90033 8.299 9.701Z" fill="white"/>
</svg>
