<svg width="14" height="16" viewBox="0 0 14 16" fill="none" xmlns="http://www.w3.org/2000/svg">
<path d="M2.61601 15.77C2.16801 15.77 1.78667 15.6127 1.47201 15.298C1.15734 14.9833 1.00001 14.6023 1.00001 14.155V1.77H0.500007C0.358007 1.77 0.239007 1.72233 0.143007 1.627C0.047007 1.53167 -0.00065977 1.41267 6.89653e-06 1.27C0.000673563 1.12733 0.0483404 1.00833 0.143007 0.913C0.237674 0.817667 0.356674 0.77 0.500007 0.77H4.00001C4.00001 0.563333 4.07667 0.383333 4.23001 0.23C4.38334 0.0766667 4.56334 0 4.77001 0H9.23001C9.43667 0 9.61667 0.0766667 9.77001 0.23C9.92334 0.383333 10 0.563333 10 0.77H13.5C13.6427 0.77 13.7617 0.817667 13.857 0.913C13.9523 1.00833 14 1.12733 14 1.27C14 1.41267 13.9523 1.53167 13.857 1.627C13.7617 1.72233 13.6427 1.77 13.5 1.77H13V14.155C13 14.6017 12.8427 14.9827 12.528 15.298C12.2133 15.6127 11.8323 15.77 11.385 15.77H2.61601ZM12 1.77H2.00001V14.155C2.00001 14.3343 2.05767 14.4817 2.17301 14.597C2.28834 14.7123 2.43601 14.77 2.61601 14.77H11.385C11.5643 14.77 11.7117 14.7123 11.827 14.597C11.9423 14.4817 12 14.3343 12 14.155V1.77ZM6.50001 6.39V10.578C6.50001 10.72 6.54767 10.839 6.64301 10.935C6.73834 11.031 6.85734 11.0787 7.00001 11.078C7.14267 11.0773 7.26167 11.0297 7.35701 10.935C7.45234 10.8403 7.50001 10.7213 7.50001 10.578V6.389L9.24601 8.129C9.33934 8.223 9.45301 8.273 9.58701 8.279C9.72167 8.28567 9.84401 8.234 9.95401 8.124C10.0607 8.01733 10.114 7.89933 10.114 7.77C10.114 7.64067 10.0607 7.52267 9.95401 7.416L7.56601 5.028C7.40401 4.86667 7.21534 4.786 7.00001 4.786C6.78467 4.786 6.59634 4.86667 6.43501 5.028L4.04601 7.416C3.95267 7.50933 3.90167 7.62333 3.89301 7.758C3.88434 7.89267 3.93534 8.01467 4.04601 8.124C4.15267 8.23067 4.26967 8.28467 4.39701 8.286C4.52501 8.288 4.64401 8.236 4.75401 8.13L6.50001 6.39Z" fill="#ED145B"/>
</svg>
